<?xml version="1.0" standalone="no"?>
<!DOCTYPE svg PUBLIC "-//W3C//DTD SVG 20010904//EN"
 "http://www.w3.org/TR/2001/REC-SVG-20010904/DTD/svg10.dtd">
<svg version="1.0" xmlns="http://www.w3.org/2000/svg"
 width="1569.000000pt" height="1434.000000pt" viewBox="0 0 1569.000000 1434.000000"
 preserveAspectRatio="xMidYMid meet"><rect x="0" y="0" width="1569.000000" height="1434.000000" fill="#111111"/>
<metadata>
Created by potrace 1.16, written by Peter Selinger 2001-2019
</metadata>
<g transform="translate(0.000000,1434.000000) scale(0.100000,-0.100000)"
fill="#ffffff" stroke="none">
<path d="M0 7170 l0 -7170 7845 0 7845 0 0 7170 0 7170 -7845 0 -7845 0 0
-7170z m14976 6541 c23 -10 52 -34 65 -52 l24 -34 -2 -6458 -1 -6458 -22 -33
c-13 -17 -40 -42 -61 -54 l-38 -22 -7103 0 c-6895 0 -7104 1 -7138 19 -19 10
-50 37 -68 60 l-32 43 0 6444 c0 6295 0 6444 19 6475 20 32 48 56 91 76 19 9
1719 12 7125 12 6894 0 7101 0 7141 -18z M7680 12488 c-296 -18 -708 -78 -920
-134 -52 -14 -122 -32 -155 -41 -171 -44 -417 -129 -606 -209 -413 -175 -774
-381 -1219 -696 -273 -194 -617 -509 -901 -828 -167 -187 -416 -539 -557 -788
-87 -154 -125 -229 -252 -507 -34 -74 -86 -210 -100 -260 -4 -16 -13 -43 -19
-60 -112 -311 -236 -859 -247 -1095 -2 -41 -11 -149 -20 -240 -30 -302 -3
-812 62 -1155 55 -291 137 -614 196 -770 11 -27 30 -81 43 -120 66 -193 189
-455 347 -736 64 -113 229 -363 293 -444 231 -293 264 -331 434 -510 268 -283
619 -564 951 -763 152 -90 384 -211 514 -266 88 -38 86 32 -10 284 -54 141
-50 135 -133 176 -100 49 -139 73 -378 231 -111 73 -247 169 -303 214 -185
147 -447 421 -664 694 -83 105 -297 417 -329 480 -8 17 -31 55 -51 85 -122
184 -397 800 -446 1000 -5 19 -18 67 -30 105 -12 39 -25 88 -29 110 -5 22 -18
80 -31 129 -12 48 -26 111 -30 140 -26 163 -32 195 -41 236 -6 25 -15 95 -19
155 -5 61 -14 151 -20 200 -12 113 -13 453 0 605 5 63 12 153 15 200 12 185
37 334 100 600 64 273 150 546 237 750 46 108 234 487 253 510 7 8 21 31 32
50 43 81 254 391 317 465 282 336 407 467 630 661 44 38 107 94 140 124 99 90
226 184 516 379 386 260 657 402 1070 565 218 85 293 107 565 165 83 18 178
39 212 47 34 8 77 14 95 14 18 0 80 6 138 14 162 23 499 46 660 46 181 -1 530
-25 705 -50 316 -45 823 -176 1020 -265 17 -8 95 -39 175 -71 216 -85 449
-202 699 -352 384 -230 586 -374 820 -583 221 -197 433 -413 564 -576 52 -65
117 -145 144 -178 69 -85 270 -384 323 -481 12 -21 37 -66 56 -99 74 -129 254
-502 254 -526 0 -8 4 -19 8 -24 22 -27 145 -386 185 -540 9 -33 20 -78 26
-100 14 -54 46 -227 65 -350 35 -224 46 -331 57 -555 9 -199 9 -274 -5 -490
-9 -140 -21 -286 -26 -325 -18 -121 -42 -258 -52 -305 -5 -25 -13 -67 -18 -95
-13 -88 -117 -471 -167 -615 -48 -140 -291 -685 -344 -773 -16 -26 -29 -49
-29 -52 0 -8 -131 -226 -195 -325 -190 -292 -429 -568 -721 -834 -221 -202
-573 -450 -889 -626 -127 -71 -191 -102 -343 -166 -86 -37 -165 -74 -174 -82
-22 -19 -53 -8 -43 16 7 19 45 248 69 422 21 150 21 324 0 398 -30 104 -38 96
-54 -48 -14 -128 -29 -218 -86 -500 -9 -41 -19 -93 -23 -115 -9 -41 -42 -185
-67 -290 -8 -33 -18 -76 -23 -95 -5 -19 -20 -79 -35 -134 -31 -116 -33 -146
-9 -146 26 0 337 115 448 165 17 8 74 35 128 60 54 25 101 45 104 45 12 0 322
156 382 192 130 79 403 260 468 310 23 18 77 60 120 93 275 210 603 540 866
872 88 111 347 501 380 573 4 8 16 30 28 49 29 49 82 152 127 251 22 47 54
117 72 155 18 39 36 81 41 95 4 14 17 50 29 80 41 108 52 137 99 280 93 281
116 372 170 660 40 215 49 282 71 545 26 301 26 597 0 865 -11 113 -24 229
-30 259 -5 29 -10 69 -10 88 0 20 -7 67 -15 107 -9 39 -23 105 -31 146 -26
126 -46 213 -61 265 -31 110 -44 153 -68 230 -14 44 -30 94 -35 110 -4 17 -18
55 -30 85 -32 83 -45 119 -69 190 -32 92 -241 513 -323 650 -160 267 -346 529
-547 769 -85 101 -354 374 -511 518 -110 101 -387 313 -535 411 -258 170 -347
223 -520 312 -322 166 -385 197 -460 229 -44 18 -108 46 -142 62 -35 16 -67
29 -71 29 -5 0 -42 14 -83 31 -77 31 -382 137 -434 149 -16 4 -73 19 -125 32
-52 14 -131 33 -175 43 -44 9 -107 23 -140 30 -341 75 -876 110 -1295 83z
M8120 11940 c-265 -23 -470 -79 -695 -190 -209 -102 -313 -171 -469 -310 -104
-92 -253 -249 -281 -295 -10 -16 -31 -43 -45 -60 -22 -25 -58 -81 -130 -205
-18 -29 -120 -237 -141 -286 -48 -112 -127 -413 -164 -629 -37 -215 -74 -398
-82 -406 -6 -6 -33 1 -69 18 -50 23 -72 27 -154 27 -79 1 -102 -3 -137 -21
-54 -29 -96 -82 -124 -154 -20 -56 -21 -69 -16 -316 4 -238 9 -300 38 -498 6
-38 19 -224 29 -412 18 -318 21 -348 45 -415 41 -113 118 -263 135 -263 22 0
26 160 5 211 -27 66 -12 132 17 69 12 -26 46 -34 52 -12 14 52 54 162 78 212
33 71 36 117 8 152 -29 37 -26 102 10 208 16 50 48 158 70 240 23 83 52 174
65 203 46 100 49 79 57 -314 3 -197 11 -386 16 -419 16 -95 30 -149 47 -181
11 -22 15 -62 15 -156 0 -71 4 -128 8 -128 9 0 24 32 67 140 12 30 26 54 31
53 29 -8 29 -505 0 -598 -9 -27 -16 -61 -16 -75 0 -34 -22 -75 -40 -75 -11 0
-16 18 -20 75 -3 41 -9 74 -14 73 -4 -1 -33 -55 -63 -120 -120 -261 -197 -413
-211 -413 -22 0 -5 194 34 399 16 86 18 121 5 121 -22 0 -224 -322 -276 -440
-44 -97 -94 -194 -95 -180 -1 75 97 485 152 635 16 42 76 176 90 200 7 11 36
67 65 124 81 159 73 168 -50 51 -74 -70 -90 -93 -131 -178 -26 -53 -51 -105
-56 -114 -5 -9 -18 -43 -29 -75 -11 -32 -39 -110 -61 -173 -47 -134 -62 -181
-95 -310 -14 -52 -34 -126 -46 -165 -11 -38 -24 -88 -28 -110 -5 -22 -20 -87
-35 -145 -48 -188 -59 -246 -91 -489 -8 -57 -12 -108 -9 -113 9 -14 30 4 66
57 169 248 174 255 187 255 9 0 -5 -89 -37 -250 -11 -52 -27 -142 -36 -200
-10 -58 -24 -141 -31 -185 -8 -44 -19 -118 -25 -165 -6 -47 -13 -100 -16 -117
-7 -44 18 -44 48 0 42 61 113 147 120 147 5 0 8 -9 8 -21 0 -34 -48 -225 -76
-299 -7 -19 -27 -93 -44 -165 -17 -71 -35 -143 -40 -160 -4 -16 -19 -94 -31
-172 l-23 -142 18 -178 c17 -168 44 -338 67 -428 6 -22 17 -67 26 -100 56
-216 162 -507 271 -745 31 -68 151 -243 226 -331 17 -19 41 -48 54 -63 44 -52
51 -9 18 104 -42 141 -71 344 -71 505 0 251 29 433 106 669 21 65 39 125 39
132 0 14 18 29 26 22 5 -6 20 -232 33 -513 9 -178 18 -239 66 -442 3 -13 13
-23 23 -23 12 0 27 27 56 101 22 57 43 98 50 96 15 -5 76 -345 76 -422 0 -38
26 -181 47 -260 48 -179 209 -401 417 -578 84 -71 104 -66 64 16 -60 120 -138
304 -138 324 0 7 -6 32 -14 55 -8 24 -20 93 -27 153 -16 157 6 344 76 640 19
77 41 174 51 215 40 175 52 215 65 215 14 0 18 -14 44 -170 27 -159 24 -150
39 -134 17 18 81 177 105 259 29 99 75 307 86 390 4 25 11 61 15 80 5 19 16
85 25 145 27 181 56 358 66 398 11 44 26 48 35 10 3 -16 17 -73 31 -128 14
-55 32 -129 39 -165 21 -92 55 -361 49 -380 -3 -9 1 -24 8 -34 12 -17 18 -11
63 65 52 86 100 183 115 229 4 14 19 57 33 95 14 39 26 77 26 86 0 9 7 39 15
65 27 91 95 413 119 569 18 113 41 252 61 370 22 128 43 288 59 460 9 88 22
230 31 315 8 86 15 175 15 198 0 42 -16 57 -27 25 -3 -10 -32 -81 -64 -158
-33 -77 -59 -143 -59 -147 0 -3 -12 -32 -27 -64 -14 -33 -34 -79 -43 -104 -10
-25 -34 -83 -54 -130 -21 -47 -42 -98 -48 -115 -15 -42 -27 -53 -39 -35 -14
20 -3 353 16 498 8 61 22 165 31 230 8 64 20 137 25 161 5 24 9 45 7 46 -15
16 -222 -286 -305 -444 -27 -51 -53 -94 -58 -95 -25 -3 -21 306 5 415 19 81
46 182 55 202 28 65 -104 -56 -225 -208 -35 -44 -65 -82 -66 -84 -2 -1 -7 0
-12 3 -15 9 41 362 68 423 12 29 0 36 -26 15 -28 -23 -118 -145 -193 -262 -51
-80 -197 -361 -269 -520 -47 -101 -95 -218 -113 -273 -26 -76 -118 -277 -137
-300 -9 -10 -18 -13 -21 -8 -10 15 16 434 34 561 30 205 66 354 111 459 13 29
24 63 24 75 -1 19 -3 18 -25 -9 -14 -16 -44 -61 -68 -98 -23 -38 -50 -80 -59
-95 -45 -71 -98 -174 -163 -316 -40 -88 -49 -60 -25 80 44 259 73 378 150 614
45 137 54 161 86 237 8 17 14 34 14 39 0 6 28 68 66 148 17 35 17 36 3 36 -10
0 -161 -154 -239 -245 -48 -56 -85 -87 -93 -79 -3 3 40 93 94 200 102 198 153
317 169 389 11 51 85 267 105 305 8 16 15 37 15 47 -1 33 -55 -43 -120 -168
-34 -65 -65 -119 -71 -119 -41 0 90 306 187 437 62 83 240 267 338 349 98 82
286 223 374 280 266 174 309 200 319 191 2 -3 -11 -29 -30 -58 -19 -30 -37
-63 -41 -75 -3 -12 -19 -33 -34 -47 -46 -45 -214 -176 -280 -219 -34 -23 -61
-46 -59 -52 5 -14 212 -19 425 -11 115 5 162 11 159 19 -2 6 -24 25 -50 41
-26 17 -46 36 -45 44 4 20 72 53 122 58 68 8 133 -19 210 -87 112 -100 167
-117 281 -86 67 18 213 91 249 124 103 98 103 201 0 343 -62 85 -74 123 -74
239 0 58 5 137 11 175 6 39 14 106 18 150 24 241 108 316 373 331 148 9 477
-17 623 -48 28 -6 68 -14 90 -18 60 -12 139 -44 178 -74 64 -49 73 -32 25 46
-63 104 -154 189 -260 244 -27 13 -48 31 -48 40 0 8 8 36 19 62 52 131 78 284
86 512 9 269 -13 493 -70 710 -45 168 -86 273 -145 365 -11 17 -23 37 -27 45
-3 8 -37 56 -74 106 -72 96 -208 231 -284 283 -118 80 -316 153 -485 181 -41
6 -97 16 -123 21 -71 13 -318 19 -427 9z m-253 -2186 c78 -13 203 -40 278 -59
75 -19 147 -35 160 -35 29 0 30 -8 11 -71 -22 -72 -44 -109 -98 -163 -48 -48
-50 -52 -43 -91 4 -22 8 -58 9 -80 1 -34 -2 -40 -21 -43 -12 -2 -40 8 -62 22
-37 24 -71 34 -71 21 0 -3 9 -23 20 -45 24 -46 26 -86 5 -93 -19 -8 -112 8
-150 24 -16 8 -48 26 -69 41 -36 26 -46 28 -140 29 -56 0 -126 4 -156 8 -30 5
-123 16 -206 26 -162 20 -188 17 -314 -30 -25 -10 -63 -18 -85 -18 -45 -1
-100 21 -100 41 0 7 28 27 62 45 280 143 298 150 418 171 161 28 201 28 500 0
l60 -5 -25 22 c-56 48 -236 127 -377 165 -84 23 -118 27 -238 27 -130 0 -146
-2 -230 -31 -49 -16 -92 -28 -95 -25 -14 14 162 110 275 149 116 40 442 40
682 -2z m-1917 -333 c48 -29 122 -126 139 -183 6 -18 22 -67 36 -108 35 -103
28 -134 -54 -262 -66 -104 -80 -90 -57 55 25 154 23 167 -34 252 -28 41 -52
75 -55 75 -2 0 -28 -46 -58 -103 -74 -138 -83 -173 -68 -295 6 -53 18 -149 25
-212 8 -63 12 -117 10 -119 -2 -2 -4 1 -4 7 0 6 -7 18 -16 27 -31 30 -78 264
-94 458 -24 310 -5 423 75 439 42 9 112 -6 155 -31z m1963 -327 c20 -4 37 -12
37 -19 0 -15 -94 -51 -169 -65 -70 -13 -208 -13 -216 0 -3 6 0 12 7 14 137 35
179 47 213 60 44 17 71 19 128 10z M9910 11242 c0 -4 30 -50 68 -102 169 -237
253 -384 365 -640 74 -171 119 -315 171 -560 18 -85 36 -306 36 -455 0 -142
-41 -540 -69 -668 -5 -23 -17 -80 -26 -127 -10 -47 -24 -110 -31 -141 -15 -63
-18 -119 -6 -119 4 0 18 23 32 51 58 124 136 188 227 189 163 0 176 -195 40
-595 -56 -165 -89 -310 -101 -441 -9 -99 -45 -243 -78 -309 -39 -78 -102 -155
-123 -152 -19 2 -20 9 -19 117 0 63 6 174 13 245 12 131 8 239 -12 282 -15 34
-32 23 -33 -23 -2 -71 -15 -217 -29 -314 -22 -156 -27 -304 -16 -500 10 -181
43 -498 56 -552 10 -41 -18 -47 -49 -11 -37 43 -49 23 -36 -63 44 -286 57
-600 42 -1054 -7 -201 -19 -430 -26 -510 -22 -228 -24 -335 -6 -335 43 0 140
473 140 683 0 79 13 97 52 73 11 -7 136 -71 277 -143 141 -72 261 -134 266
-138 15 -12 600 -304 689 -344 43 -20 85 -36 92 -36 16 0 54 57 54 82 0 34
-54 66 -335 198 -114 54 -213 104 -445 223 -430 220 -581 301 -604 322 -23 22
-24 24 -24 226 0 112 -5 258 -11 324 -24 253 -25 230 14 270 l35 34 0 124 c0
125 -32 494 -50 571 -15 64 -13 69 46 132 102 107 163 227 198 389 9 39 23
131 31 205 19 165 33 219 108 430 38 108 77 321 77 425 0 93 -19 164 -56 213
-48 62 -143 88 -221 60 -18 -6 -35 -9 -39 -5 -3 3 -1 34 6 69 14 75 33 205 55
383 27 212 12 622 -30 805 -58 258 -207 603 -351 812 -149 217 -364 453 -364
400z M9316 9219 c-60 -10 -114 -23 -119 -28 -11 -11 0 -32 16 -29 31 6 221
-15 295 -33 79 -19 99 -25 169 -55 17 -8 34 -14 37 -14 3 0 36 -14 72 -31 92
-44 98 -29 26 68 -44 58 -72 86 -104 101 -93 46 -210 52 -392 21z M9143 8914
c-26 -6 -29 -28 -8 -64 25 -43 19 -59 -29 -80 -83 -35 -83 -109 1 -289 39 -84
133 -346 133 -372 0 -20 61 -134 98 -182 81 -106 227 -182 337 -175 150 9 250
117 290 313 15 71 34 258 35 330 0 22 6 33 23 40 14 6 23 21 25 39 7 56 -92
127 -225 161 -32 8 -69 19 -83 24 -14 5 -51 17 -82 27 -32 10 -58 22 -58 26 0
11 -7 10 114 17 68 4 111 10 113 17 5 14 -64 62 -122 86 -22 9 -74 24 -115 33
-41 9 -100 22 -130 30 -57 14 -278 27 -317 19z M8908 8052 c-33 -20 -36 -32
-8 -32 29 0 70 21 70 37 0 18 -29 16 -62 -5z M7800 7538 c-19 -6 -58 -10 -86
-9 -57 1 -160 -38 -171 -65 -4 -10 12 -31 48 -64 58 -53 73 -58 103 -35 29 22
49 18 81 -15 27 -28 34 -30 98 -30 62 0 73 -3 102 -29 45 -39 126 -61 224 -61
53 0 90 -5 104 -14 36 -23 162 -36 382 -40 50 0 99 -6 111 -13 19 -11 27 -9
55 10 19 12 46 28 62 34 15 7 27 19 27 26 0 20 -71 74 -127 97 -26 11 -59 26
-73 34 -14 8 -54 22 -90 30 -36 9 -87 26 -115 38 -39 16 -64 19 -125 16 -41
-3 -85 -11 -96 -18 -20 -12 -26 -10 -64 23 -41 34 -142 77 -184 77 -11 0 -34
-5 -52 -12 -27 -10 -37 -9 -59 6 -33 21 -109 28 -155 14z M7314 7415 c-21 -32
-15 -86 16 -152 35 -73 150 -259 253 -407 22 -31 37 -12 24 29 -16 53 2 64 44
28 85 -73 150 -95 429 -147 185 -35 398 -9 558 67 59 28 152 106 152 128 0 26
-65 47 -159 53 -115 7 -303 32 -386 51 -33 7 -125 28 -205 45 -79 18 -181 45
-226 61 -45 16 -87 29 -93 29 -6 0 -57 22 -114 49 -73 35 -125 68 -184 120
-45 39 -84 71 -87 71 -3 0 -13 -11 -22 -25z M9327 7023 c-11 -10 -8 -28 7 -48
12 -16 16 -17 30 -6 9 7 16 24 16 37 0 18 -5 24 -23 24 -13 0 -27 -3 -30 -7z
M5139 5381 c-64 -27 -202 -90 -305 -141 -104 -50 -196 -95 -204 -99 -8 -4 -28
-15 -45 -23 -30 -16 -215 -101 -330 -153 -224 -100 -335 -167 -335 -199 0 -7
11 -23 25 -36 36 -33 89 -24 225 42 63 31 174 84 245 118 512 245 880 427 893
443 8 10 10 29 6 56 -6 36 -10 41 -33 40 -14 0 -78 -22 -142 -48z M10055 5110
c-8 -13 3 -332 21 -570 20 -272 52 -458 82 -468 37 -12 46 165 23 483 -15 219
-33 323 -71 437 -17 47 -30 93 -30 102 0 19 -16 30 -25 16z M9696 3123 c-3 -4
-6 -17 -6 -29 0 -48 -83 -253 -147 -364 -143 -247 -309 -423 -620 -658 -103
-78 -123 -81 -88 -12 16 30 42 226 32 236 -10 11 -29 -8 -43 -43 -29 -68 -192
-291 -310 -424 -131 -147 -147 -169 -128 -176 9 -3 37 1 63 11 25 9 52 16 59
16 28 0 269 123 364 186 210 140 481 382 607 544 36 47 85 109 108 137 110
137 223 340 223 402 0 59 -91 197 -114 174z M7276 1958 c-26 -100 23 -266 88
-296 27 -12 66 8 66 33 0 8 -24 65 -54 127 -30 62 -56 122 -58 133 -5 29 -34
31 -42 3z M7744 1885 c-8 -20 -26 -61 -40 -93 -39 -87 -37 -184 6 -268 37 -71
114 -164 136 -164 25 0 18 128 -15 253 -17 62 -33 156 -37 210 -7 107 -23 126
-50 62z M8074 1596 c-4 -10 -2 -22 4 -28 8 -8 13 -7 18 6 4 10 2 22 -4 28 -8
8 -13 7 -18 -6z"/>
</g>
</svg>
