<?xml version="1.0" standalone="no"?>
<!DOCTYPE svg PUBLIC "-//W3C//DTD SVG 20010904//EN"
 "http://www.w3.org/TR/2001/REC-SVG-20010904/DTD/svg10.dtd">
<svg version="1.0" xmlns="http://www.w3.org/2000/svg"
 width="1080.000000pt" height="1119.000000pt" viewBox="0 0 1080.000000 1119.000000"
 preserveAspectRatio="xMidYMid meet">
<metadata>
Created by potrace 1.16, written by Peter Selinger 2001-2019
</metadata>
<g transform="translate(0.000000,1119.000000) scale(0.100000,-0.100000)"
fill="#000000" stroke="none">
<path d="M5030 10553 c-221 -17 -609 -72 -729 -102 -20 -5 -67 -17 -106 -27
-210 -51 -541 -156 -660 -209 -16 -7 -55 -23 -85 -35 -116 -47 -319 -144 -430
-208 -93 -53 -85 -48 -205 -124 -55 -35 -104 -65 -110 -68 -34 -17 -220 -148
-290 -205 -168 -136 -411 -353 -495 -442 -159 -168 -413 -483 -491 -610 -20
-32 -75 -120 -123 -196 -48 -76 -102 -166 -120 -200 -92 -170 -206 -408 -231
-481 -47 -130 -139 -405 -145 -431 -4 -16 -18 -66 -30 -110 -13 -44 -26 -100
-31 -125 -4 -25 -12 -63 -17 -85 -23 -94 -59 -332 -87 -580 -18 -160 -21 -584
-5 -710 5 -44 14 -130 19 -190 6 -61 15 -130 20 -155 6 -25 22 -106 36 -180
15 -74 30 -155 35 -180 10 -52 32 -141 48 -191 6 -18 25 -81 42 -139 87 -293
174 -510 303 -760 223 -434 480 -790 802 -1116 203 -205 517 -456 740 -592 38
-24 79 -48 90 -55 11 -7 58 -36 105 -66 47 -30 132 -78 189 -108 57 -29 110
-58 116 -63 15 -12 28 -1 16 14 -10 12 -33 79 -78 231 -80 268 -112 455 -138
803 -20 274 -13 343 68 667 11 44 25 114 33 155 7 41 16 91 20 110 7 33 6 34
-10 20 -20 -16 -96 -124 -96 -137 -1 -14 -38 -53 -50 -53 -8 0 -10 9 -7 22 9
42 37 189 68 358 29 164 69 660 55 695 -10 28 -24 7 -50 -73 -14 -42 -34 -102
-46 -132 -12 -30 -28 -73 -36 -95 -9 -22 -19 -56 -23 -75 -10 -46 -31 -79 -56
-86 -21 -7 -102 -43 -212 -95 -35 -16 -65 -29 -67 -29 -3 0 -38 -15 -78 -34
-159 -74 -296 -135 -358 -161 -36 -15 -117 -52 -180 -82 -63 -31 -143 -68
-176 -83 -34 -16 -64 -32 -67 -37 -15 -25 256 -390 415 -559 102 -108 375
-350 528 -468 41 -32 78 -63 82 -70 3 -6 10 -40 14 -74 5 -46 3 -62 -6 -62
-33 0 -280 176 -435 311 -347 302 -632 643 -834 999 -24 41 -80 152 -125 245
-128 263 -141 293 -213 490 -49 134 -54 149 -63 180 -5 17 -18 62 -30 100 -88
301 -136 566 -159 890 -22 295 -3 713 44 965 14 74 32 176 41 225 23 133 75
311 166 575 57 166 61 175 204 465 137 277 290 515 500 780 176 221 495 539
721 718 153 121 332 251 373 270 8 4 29 16 45 27 17 11 37 23 45 27 8 3 32 17
52 30 182 113 554 286 748 348 30 10 71 24 90 30 115 41 201 68 240 75 25 5
88 20 140 33 86 22 157 36 345 69 33 5 98 14 145 19 47 5 117 13 155 18 111
16 601 13 802 -5 261 -22 549 -66 616 -93 16 -6 40 -11 55 -11 15 0 47 -6 72
-14 25 -8 74 -22 110 -32 106 -28 281 -88 475 -162 106 -40 303 -127 355 -158
30 -17 91 -50 135 -74 232 -124 308 -171 470 -292 228 -170 492 -401 605 -530
54 -61 106 -118 186 -202 6 -6 64 -79 129 -161 111 -142 187 -251 286 -413 24
-40 51 -85 61 -100 36 -58 238 -470 288 -587 9 -21 50 -147 101 -310 17 -55
39 -125 49 -155 10 -30 30 -107 45 -170 15 -63 33 -138 41 -166 8 -28 14 -66
14 -86 0 -19 6 -57 14 -84 8 -27 17 -87 20 -134 4 -47 11 -123 16 -170 5 -47
9 -193 9 -325 1 -328 -30 -644 -89 -900 -12 -49 -24 -106 -29 -125 -4 -19 -19
-73 -34 -120 -15 -47 -43 -137 -63 -200 -19 -63 -47 -144 -60 -180 -14 -36
-31 -81 -39 -100 -44 -115 -116 -277 -159 -355 -27 -49 -62 -115 -78 -145 -42
-79 -76 -139 -109 -188 -16 -24 -29 -45 -29 -47 0 -8 -145 -212 -224 -315
-433 -564 -957 -989 -1566 -1270 -217 -101 -238 -110 -248 -110 -4 0 -30 -11
-58 -24 -27 -13 -65 -28 -85 -35 -39 -13 -54 -36 -84 -131 -17 -54 -113 -254
-162 -338 -29 -48 -25 -61 12 -44 14 7 37 12 50 12 13 0 39 6 57 14 18 8 62
23 98 34 114 36 315 109 371 135 30 14 99 47 154 72 55 26 116 55 135 65 144
75 177 95 428 255 380 243 769 606 1092 1020 75 96 182 245 217 301 7 10 38
61 70 112 89 142 89 143 198 362 180 359 253 547 353 905 64 228 73 278 132
683 34 239 37 826 6 1067 -50 376 -86 553 -167 820 -90 297 -179 519 -342 855
-67 138 -289 492 -411 655 -242 323 -487 578 -825 858 -105 87 -245 187 -261
187 -5 0 -13 6 -17 13 -30 47 -536 329 -713 397 -19 7 -44 20 -55 27 -11 7
-25 13 -32 13 -7 0 -43 14 -80 31 -123 56 -148 67 -188 79 -22 7 -56 18 -75
25 -48 17 -122 39 -200 60 -36 10 -83 23 -105 30 -22 7 -67 20 -100 28 -33 8
-80 20 -105 26 -25 7 -74 16 -110 21 -36 5 -78 14 -94 19 -15 6 -43 11 -62 11
-20 0 -72 6 -117 14 -170 30 -435 46 -732 44 -159 -1 -310 -3 -335 -5z M5190
10080 c-226 -21 -440 -80 -637 -176 -51 -25 -108 -56 -128 -70 -20 -13 -38
-24 -40 -24 -2 0 -35 -21 -72 -47 -332 -229 -584 -556 -745 -968 -120 -306
-166 -534 -204 -1016 -4 -54 -2 -79 6 -84 23 -14 41 23 61 131 11 60 26 138
34 174 8 36 21 97 29 135 65 305 93 411 137 526 16 42 29 79 29 83 0 14 110
229 161 314 65 109 118 180 230 307 110 126 150 164 274 260 115 90 154 115
245 161 403 203 844 258 1215 150 173 -50 359 -149 466 -248 99 -90 197 -230
270 -383 78 -166 116 -284 151 -465 19 -101 22 -150 22 -410 1 -335 -11 -422
-69 -542 l-33 -68 51 -37 c69 -50 215 -191 233 -225 19 -36 7 -36 -60 2 -76
42 -321 79 -626 95 -207 10 -355 -27 -405 -103 -39 -60 -66 -209 -82 -464 -7
-102 6 -148 70 -242 84 -126 96 -187 48 -252 -43 -60 -70 -81 -151 -119 -77
-37 -145 -55 -205 -55 -60 0 -66 2 -136 54 -140 101 -180 112 -286 79 -49 -15
-57 -16 -81 -2 -15 8 -38 34 -51 57 -23 42 -23 44 -6 95 9 28 30 69 47 90 54
67 21 62 -104 -16 -45 -29 -147 -101 -226 -160 -79 -59 -145 -107 -148 -107
-3 0 -49 -33 -102 -74 -189 -144 -359 -344 -451 -531 -81 -164 -98 -274 -23
-147 23 39 47 74 52 77 34 21 -20 -180 -96 -357 -30 -70 -54 -130 -54 -133 0
-3 -12 -32 -26 -63 -47 -106 -53 -120 -59 -156 -5 -22 -3 -36 3 -36 5 0 34 33
65 73 70 92 238 279 256 285 16 5 14 -4 -19 -88 -12 -30 -26 -68 -30 -85 -10
-36 -57 -176 -75 -225 -18 -47 -61 -191 -80 -264 -9 -32 -15 -95 -15 -140 1
-84 0 -144 -3 -185 -4 -51 21 -27 87 84 62 105 181 326 206 384 7 16 14 21 20
15 16 -16 -31 -217 -125 -539 -37 -126 -71 -246 -75 -265 -16 -69 -50 -192
-55 -200 -11 -17 13 -19 28 -2 15 17 147 213 147 218 0 1 33 59 74 128 41 69
117 210 169 314 52 103 105 205 119 227 13 22 55 95 92 163 37 67 72 122 77
122 12 0 12 -57 -1 -117 -5 -26 -14 -94 -20 -151 -5 -57 -13 -115 -16 -130
l-6 -27 29 31 c15 18 53 65 83 105 30 40 70 88 88 108 19 20 40 46 49 59 17
24 43 30 43 9 0 -6 -12 -57 -26 -112 -34 -132 -52 -465 -25 -465 5 0 18 27 31
61 12 33 61 127 109 208 48 81 90 155 94 164 7 18 22 23 30 10 3 -5 -1 -40 -9
-80 -32 -171 -62 -687 -39 -689 6 0 17 18 26 40 31 77 262 621 266 625 2 3 8
0 13 -5 11 -11 8 -56 -25 -449 -40 -485 -61 -668 -100 -875 -8 -41 -22 -113
-30 -160 -8 -47 -22 -112 -30 -145 -38 -164 -48 -203 -60 -245 -7 -25 -20 -72
-30 -105 -24 -87 -50 -163 -74 -218 -59 -136 -127 -257 -146 -257 -15 0 -28
27 -19 42 8 13 -16 699 -26 716 -4 9 -14 -7 -28 -45 -35 -99 -78 -225 -100
-293 -12 -36 -30 -90 -42 -120 -12 -30 -28 -75 -37 -100 -8 -25 -31 -83 -50
-130 -46 -112 -56 -138 -93 -245 -17 -49 -38 -106 -45 -125 -8 -19 -27 -72
-41 -117 -37 -117 -51 -110 -59 27 -7 98 -16 132 -31 117 -16 -16 -36 -202
-37 -347 -1 -144 2 -174 21 -235 12 -38 26 -79 31 -90 5 -11 18 -40 29 -65 66
-149 81 -174 199 -357 29 -45 53 -84 53 -87 0 -12 62 -96 71 -96 5 0 12 8 15
18 20 63 59 150 93 207 21 36 47 44 56 16 20 -63 174 -245 284 -334 37 -30 61
-29 61 3 0 32 21 111 43 162 28 66 49 70 101 19 23 -23 47 -41 54 -41 7 0 26
22 42 49 17 27 131 147 253 268 123 120 233 232 244 248 16 23 24 27 33 18 9
-8 6 -37 -15 -118 -14 -59 -24 -109 -21 -112 6 -6 102 54 189 117 34 25 88 63
119 84 32 21 113 92 181 159 105 104 140 147 236 292 62 94 119 176 125 183
17 17 28 3 51 -66 18 -56 37 -72 64 -55 15 10 74 160 90 233 5 19 18 69 29
110 37 134 92 480 92 578 0 43 4 62 11 60 11 -4 41 -77 53 -130 4 -16 11 -28
18 -28 7 0 9 16 4 53 -22 162 -25 206 -26 355 0 192 10 204 52 67 44 -143 62
-141 71 8 3 51 10 115 16 142 55 267 74 548 46 657 -6 22 -4 28 9 28 9 0 29
-25 48 -62 l33 -63 -1 -196 c-1 -199 -15 -332 -56 -549 -11 -58 -26 -136 -33
-175 -7 -38 -17 -88 -23 -110 -6 -22 -19 -71 -28 -110 -20 -82 -36 -113 -68
-125 -23 -8 -24 -14 -31 -157 -4 -81 -13 -182 -21 -223 -8 -41 -14 -92 -14
-112 0 -20 -5 -49 -10 -64 -17 -43 0 -48 76 -23 38 12 73 26 79 31 5 4 17 8
26 8 10 0 30 6 46 14 15 8 44 21 63 30 33 15 206 105 380 198 130 69 292 182
491 342 163 131 509 492 596 624 27 41 33 55 24 66 -7 8 -51 31 -99 51 -48 21
-136 61 -197 90 -60 30 -182 88 -270 130 -88 42 -245 119 -350 170 -104 51
-274 134 -377 184 -117 57 -188 97 -192 108 -2 10 -7 108 -11 218 -6 209 -34
474 -71 668 -6 31 10 36 38 10 27 -24 33 -10 20 49 -7 29 -17 109 -22 178 -6
69 -12 139 -15 155 -3 17 -10 84 -15 150 -6 66 -14 145 -19 175 -5 31 -4 101
1 160 5 58 13 177 16 265 4 90 11 160 17 160 16 0 36 -88 38 -170 1 -44 -6
-136 -15 -205 -24 -164 -24 -248 -1 -257 38 -15 139 135 179 266 25 81 54 220
54 259 0 41 32 227 48 277 23 72 62 235 82 341 25 129 -30 244 -115 244 -46 0
-119 -35 -150 -72 -13 -15 -38 -64 -56 -108 -18 -44 -37 -80 -42 -80 -12 0 -3
85 18 170 94 388 136 875 104 1209 -17 176 -55 377 -85 449 -8 18 -14 39 -14
46 0 7 -9 35 -21 62 -154 365 -280 562 -506 788 -153 153 -364 310 -502 372
-25 11 -84 38 -131 60 -86 41 -130 59 -185 74 -145 42 -194 54 -285 71 -119
23 -391 32 -530 19z m1480 -2654 c45 -24 72 -50 117 -109 49 -66 34 -75 -53
-34 -118 57 -256 92 -406 103 -54 4 -98 10 -98 14 0 15 48 39 86 43 21 3 102
4 179 3 116 -1 146 -5 175 -20z m-170 -272 c188 -23 304 -65 298 -107 -2 -16
-15 -26 -50 -38 -26 -8 -51 -19 -55 -23 -10 -10 17 -26 45 -26 13 0 62 -19
110 -42 130 -63 173 -122 118 -165 -22 -17 -24 -28 -33 -163 -14 -200 -44
-290 -123 -371 -41 -42 -68 -60 -100 -69 -84 -23 -184 5 -282 76 -87 65 -138
150 -198 334 -11 36 -28 88 -37 115 -9 28 -38 95 -65 149 -57 117 -61 159 -22
205 14 17 32 31 39 31 23 0 26 18 10 56 -25 60 -12 67 114 59 58 -3 162 -13
231 -21z m-1628 -531 c9 -10 19 -28 22 -40 10 -31 66 -78 137 -113 33 -17 57
-35 54 -40 -4 -6 -104 -10 -251 -10 -203 0 -244 2 -244 14 0 8 16 24 36 35 35
21 98 70 177 138 43 38 48 39 69 16z m1143 -212 c6 -10 -25 -31 -45 -31 -8 0
-8 6 0 20 11 21 35 27 45 11z m-921 -506 c24 -13 36 -13 64 -4 58 19 166 -11
221 -62 23 -22 29 -22 124 1 43 11 56 9 105 -9 32 -11 86 -26 122 -34 83 -19
157 -47 217 -84 56 -35 66 -59 29 -73 -15 -5 -39 -19 -56 -31 -28 -21 -30 -21
-63 -6 -28 14 -41 15 -66 6 -19 -7 -48 -8 -69 -4 -20 4 -80 8 -132 10 -59 2
-112 10 -140 21 -25 9 -65 16 -90 15 -86 -4 -203 26 -249 63 -8 6 -40 11 -72
11 -52 1 -62 4 -92 33 -37 36 -53 39 -85 16 -12 -8 -28 -12 -35 -8 -32 20 -87
70 -87 81 0 22 99 65 134 59 17 -3 45 -2 61 3 47 15 127 12 159 -4z m-498
-117 c36 -40 136 -97 243 -138 198 -77 216 -82 531 -141 30 -5 147 -19 258
-30 112 -10 212 -24 223 -29 28 -15 24 -35 -16 -73 -75 -73 -227 -131 -376
-143 -170 -14 -488 50 -572 116 -13 10 -36 22 -50 25 -25 7 -27 5 -27 -24 0
-42 -24 -41 -45 2 -8 17 -33 57 -55 87 -60 82 -112 161 -130 195 -27 53 -53
142 -47 159 9 23 40 20 63 -6z m1802 -321 c3 -21 -1 -27 -17 -27 -21 0 -37 32
-26 50 12 20 40 5 43 -23z M4407 7894 c-89 -21 -287 -122 -287 -146 0 -12 19
-9 155 26 147 38 239 36 380 -9 61 -19 119 -39 130 -44 35 -16 109 -49 158
-69 65 -29 62 -46 -5 -36 -29 4 -129 7 -223 6 -218 -1 -320 -21 -449 -88 -50
-26 -115 -58 -143 -72 -29 -14 -53 -31 -53 -38 0 -7 24 -20 53 -30 51 -16 54
-16 137 9 93 28 102 28 425 8 88 -5 172 -7 186 -4 24 4 140 -36 211 -73 54
-29 108 -15 108 27 0 27 2 29 21 19 28 -16 66 -5 74 20 4 12 1 43 -6 71 l-13
49 45 48 c55 56 89 114 89 148 0 14 5 35 11 46 9 16 8 24 -4 36 -13 13 -20 13
-46 2 -36 -15 -170 -7 -271 17 -163 37 -198 45 -235 55 -145 39 -340 48 -448
22z M3100 7738 c-54 -28 -87 -83 -106 -178 -22 -111 -2 -364 47 -600 44 -210
58 -324 59 -465 0 -191 22 -289 104 -470 20 -44 36 -92 36 -107 0 -46 20 -43
67 11 24 28 49 51 54 51 18 0 8 -27 -41 -102 -28 -43 -50 -81 -50 -86 0 -5
-12 -36 -26 -68 -34 -77 -72 -193 -90 -274 -8 -36 -21 -96 -29 -135 -8 -38
-26 -113 -39 -165 -23 -90 -21 -143 3 -83 6 15 15 35 20 43 5 8 17 35 26 60
56 150 179 358 268 454 25 26 30 28 38 14 6 -10 5 -27 -2 -45 -54 -139 -93
-473 -56 -473 13 0 37 40 37 61 0 8 71 162 127 274 8 17 24 54 35 83 11 29 25
51 31 49 7 -2 17 -35 22 -73 7 -49 14 -70 26 -72 37 -7 73 355 49 498 -7 41
-16 101 -19 132 -10 88 -30 91 -55 9 -8 -27 -22 -64 -32 -82 l-18 -34 -8 93
c-4 51 -14 121 -22 155 -32 133 -45 277 -50 560 -5 279 -9 317 -37 317 -15 0
-48 -90 -74 -198 -13 -59 -37 -154 -51 -212 -36 -141 -36 -181 -1 -218 15 -15
27 -35 27 -43 0 -7 -16 -52 -36 -99 -20 -47 -42 -100 -50 -118 -8 -18 -14 -48
-14 -67 0 -62 -35 -55 -70 14 -9 20 -23 69 -30 109 -11 64 -9 91 10 224 20
137 21 160 10 237 -7 48 -17 97 -22 111 -52 136 -65 341 -28 438 34 88 80 173
90 167 6 -4 24 -34 41 -68 35 -69 39 -108 26 -249 -8 -75 -7 -88 6 -88 8 0 24
15 36 33 11 17 34 50 51 71 26 33 30 48 30 99 0 198 -179 415 -307 373 -36
-12 -29 24 12 64 28 28 44 34 90 38 61 5 75 25 29 42 -42 16 -97 11 -144 -12z
M4980 7296 c-61 -17 -130 -47 -130 -58 0 -13 57 -10 109 6 25 8 60 18 76 23
34 10 41 37 10 40 -11 1 -40 -4 -65 -11z M3641 2719 c-14 -32 -58 -201 -84
-319 -17 -79 -20 -132 -21 -320 l-1 -225 38 -90 c44 -102 84 -178 136 -250 38
-54 230 -255 243 -255 12 0 9 36 -6 72 -8 18 -21 58 -30 88 -9 30 -30 98 -46
150 -17 52 -34 109 -39 125 -16 51 -78 316 -96 405 -8 47 -21 105 -27 130 -15
64 -28 192 -34 355 -6 142 -15 177 -33 134z"/>
</g>
</svg>
