<?xml version="1.0" standalone="no"?>
<!DOCTYPE svg PUBLIC "-//W3C//DTD SVG 20010904//EN"
 "http://www.w3.org/TR/2001/REC-SVG-20010904/DTD/svg10.dtd">
<svg version="1.0" xmlns="http://www.w3.org/2000/svg"
 width="1917.000000pt" height="1980.000000pt" viewBox="0 0 1917.000000 1980.000000"
 preserveAspectRatio="xMidYMid meet">
<metadata>
Created by potrace 1.16, written by Peter Selinger 2001-2019
</metadata>
<g transform="translate(0.000000,1980.000000) scale(0.100000,-0.100000)"
fill="#000000" stroke="none">
<path d="M8840 19179 c-384 -20 -819 -74 -1205 -149 -128 -24 -214 -42 -265
-55 -30 -8 -95 -24 -145 -35 -185 -44 -409 -107 -610 -171 -71 -22 -143 -45
-160 -49 -68 -19 -445 -158 -530 -195 -16 -8 -55 -23 -85 -35 -188 -75 -706
-328 -860 -420 -67 -39 -345 -208 -385 -233 -98 -60 -421 -279 -485 -327 -36
-27 -97 -73 -136 -102 -207 -153 -347 -271 -614 -517 -173 -160 -270 -259
-520 -530 -58 -63 -110 -119 -116 -125 -5 -6 -43 -54 -84 -106 -41 -52 -122
-156 -180 -230 -58 -74 -132 -173 -166 -220 -77 -106 -314 -457 -314 -463 0
-3 -16 -29 -36 -58 -20 -30 -43 -67 -51 -84 -16 -33 -26 -51 -66 -112 -15 -24
-27 -45 -27 -47 0 -2 -19 -37 -43 -78 -76 -129 -377 -745 -377 -771 0 -7 -4
-17 -9 -22 -5 -6 -19 -35 -31 -65 -12 -30 -28 -68 -35 -85 -34 -81 -107 -270
-135 -350 -17 -49 -37 -106 -45 -125 -8 -19 -35 -102 -60 -185 -26 -82 -59
-190 -75 -240 -15 -49 -30 -99 -33 -110 -3 -11 -15 -56 -27 -100 -13 -44 -26
-98 -30 -120 -4 -22 -19 -85 -33 -140 -30 -122 -47 -195 -57 -255 -5 -25 -18
-90 -30 -145 -25 -117 -46 -234 -60 -325 -5 -36 -19 -126 -30 -200 -68 -445
-94 -1030 -70 -1535 12 -241 44 -609 65 -750 8 -49 19 -124 25 -165 12 -80 32
-192 55 -305 13 -66 30 -149 41 -205 2 -14 12 -61 20 -105 20 -102 61 -269 90
-365 7 -25 27 -92 44 -150 33 -111 102 -325 170 -525 44 -130 115 -313 161
-413 16 -35 29 -70 29 -77 0 -8 4 -16 9 -19 4 -3 19 -34 31 -68 32 -87 295
-618 348 -703 14 -22 57 -94 95 -160 84 -145 275 -435 372 -565 39 -52 78
-106 86 -120 15 -23 75 -101 197 -254 144 -180 205 -252 301 -351 289 -301
366 -378 471 -474 63 -58 158 -144 210 -192 110 -101 272 -233 381 -310 42
-30 98 -71 125 -92 86 -67 215 -159 329 -233 60 -40 130 -87 154 -105 46 -33
489 -299 499 -299 3 0 13 -7 22 -15 9 -8 153 -82 320 -165 311 -154 324 -161
420 -203 97 -43 194 -88 233 -108 45 -23 57 -24 57 -4 0 16 -37 131 -70 215
-12 30 -25 66 -30 80 -15 44 -180 453 -204 505 -70 149 -86 185 -86 190 0 4
-16 46 -36 93 -20 48 -56 137 -81 197 -24 61 -50 122 -57 136 -21 42 -130 388
-179 569 -61 222 -85 366 -118 703 -20 202 0 752 30 864 6 21 25 99 42 173 17
74 41 169 54 210 63 205 75 239 99 294 54 123 -15 63 -83 -72 -37 -73 -45 -56
-37 91 6 132 12 194 41 467 18 172 20 290 4 290 -10 0 -90 -34 -229 -97 -36
-16 -103 -47 -150 -68 -47 -21 -120 -56 -164 -77 -43 -21 -83 -38 -88 -38 -5
0 -51 -20 -101 -44 -171 -82 -287 -136 -293 -136 -5 0 -172 -79 -400 -191 -78
-38 -144 -69 -148 -69 -5 0 -123 -55 -313 -146 -50 -24 -96 -44 -101 -44 -5 0
-38 -15 -73 -33 -35 -17 -93 -45 -129 -61 -130 -57 -410 -197 -410 -205 0 -4
13 -27 30 -49 16 -23 30 -44 30 -47 0 -5 64 -96 240 -340 124 -172 135 -187
275 -350 66 -77 131 -153 145 -170 132 -156 402 -419 619 -604 180 -154 562
-423 789 -557 87 -52 152 -101 152 -116 0 -6 21 -60 46 -122 25 -61 52 -129
61 -151 8 -22 23 -58 34 -80 27 -58 11 -64 -63 -25 -116 61 -193 103 -228 125
-19 12 -39 24 -45 26 -53 22 -563 367 -720 486 -434 329 -780 661 -1134 1087
-93 112 -369 479 -448 596 -87 128 -173 261 -173 266 0 3 -13 25 -30 49 -17
24 -30 46 -30 49 0 3 -21 40 -46 83 -25 43 -62 107 -81 143 -19 36 -50 94 -70
130 -114 210 -278 566 -358 780 -7 19 -26 69 -43 110 -75 190 -134 367 -199
590 -8 30 -21 73 -28 95 -29 89 -55 186 -80 290 -14 61 -34 146 -44 190 -39
164 -91 444 -116 620 -40 288 -46 340 -60 515 -24 277 -24 1005 -2 1255 24
260 45 447 61 530 8 39 22 117 31 175 24 154 53 301 80 420 14 58 32 137 40
175 33 145 55 225 105 385 17 52 30 100 30 106 0 13 112 351 158 479 52 142
112 291 239 595 63 151 277 566 368 715 23 39 57 97 75 130 36 66 221 357 285
447 124 177 234 319 465 603 270 332 780 827 1125 1092 6 5 44 35 86 68 205
161 198 156 524 372 121 80 238 155 260 166 22 12 65 37 95 56 30 20 64 41 76
47 28 15 143 78 237 130 127 70 432 216 582 279 50 21 115 49 145 63 30 13 66
28 80 33 14 4 50 17 80 29 30 12 66 25 80 30 14 5 70 25 125 45 55 20 129 45
165 56 36 12 81 27 100 35 19 7 85 27 145 45 61 17 132 37 159 45 26 8 57 14
68 14 11 0 27 4 37 10 10 5 49 16 87 24 38 8 127 29 198 46 461 109 940 175
1461 201 345 17 1111 1 1385 -30 172 -19 330 -41 415 -56 44 -9 91 -15 105
-15 14 0 58 -7 98 -15 39 -8 107 -22 150 -30 126 -26 215 -45 257 -57 22 -6
58 -14 80 -18 38 -7 204 -50 330 -85 33 -9 83 -23 110 -30 129 -34 193 -53
260 -80 17 -7 75 -27 130 -45 55 -18 134 -46 175 -61 41 -15 104 -37 140 -49
36 -12 88 -32 115 -45 28 -12 93 -40 145 -63 243 -104 332 -147 665 -324 50
-26 97 -51 105 -55 14 -6 197 -112 230 -132 26 -16 201 -125 219 -136 22 -14
157 -105 217 -147 27 -19 81 -56 119 -83 81 -56 256 -187 301 -224 17 -14 48
-39 69 -56 304 -235 891 -795 1124 -1073 300 -359 597 -753 739 -984 21 -35
73 -117 114 -183 41 -66 96 -160 123 -210 26 -49 62 -115 80 -145 18 -30 56
-100 84 -154 28 -55 55 -104 59 -110 5 -6 23 -45 42 -86 18 -41 63 -138 100
-215 37 -77 78 -165 90 -195 12 -30 42 -104 67 -165 25 -60 58 -144 75 -185
16 -41 36 -88 43 -105 13 -30 62 -169 83 -235 28 -89 174 -581 186 -630 8 -30
22 -82 30 -115 83 -311 158 -764 206 -1250 18 -182 31 -636 25 -865 -9 -338
-50 -814 -91 -1060 -8 -52 -22 -135 -29 -185 -24 -153 -43 -247 -90 -450 -8
-36 -21 -93 -29 -128 -23 -100 -37 -153 -83 -312 -128 -443 -186 -616 -283
-850 -17 -38 -45 -112 -64 -162 -34 -90 -49 -124 -116 -268 -18 -38 -53 -113
-77 -165 -62 -132 -140 -288 -165 -330 -11 -19 -51 -91 -88 -160 -119 -222
-114 -213 -285 -480 -23 -36 -45 -72 -48 -80 -6 -14 -43 -65 -111 -156 -17
-21 -48 -64 -70 -94 -37 -50 -88 -115 -263 -336 -35 -44 -80 -97 -101 -119
-21 -22 -71 -78 -112 -125 -165 -190 -567 -575 -789 -755 -83 -68 -317 -242
-478 -355 -114 -80 -334 -218 -448 -281 -33 -18 -96 -54 -140 -80 -72 -44
-576 -299 -589 -299 -2 0 -42 -18 -88 -39 -46 -22 -144 -64 -218 -94 -74 -30
-177 -73 -229 -96 -52 -23 -100 -41 -107 -41 -7 0 -25 -6 -41 -14 -15 -8 -53
-24 -83 -36 -81 -32 -95 -44 -109 -91 -7 -24 -26 -75 -41 -114 -16 -38 -31
-79 -33 -90 -5 -20 -45 -126 -87 -235 -12 -30 -25 -66 -29 -80 -5 -14 -34 -80
-65 -148 -31 -68 -56 -127 -56 -132 0 -17 21 -22 38 -8 9 8 40 20 67 26 47 12
130 37 380 114 119 37 276 96 289 109 6 5 17 9 26 9 9 0 52 15 96 34 43 18
129 54 189 79 101 42 168 72 452 208 57 27 126 60 155 73 50 23 213 109 323
170 213 118 768 491 946 634 435 351 472 384 794 706 276 277 451 469 595 654
36 46 98 125 138 175 41 51 90 115 108 142 19 28 64 91 99 140 36 50 81 117
102 150 20 33 74 116 118 185 45 69 99 157 120 195 41 77 64 119 152 275 32
58 77 143 100 190 131 268 221 458 228 480 4 14 13 39 20 55 23 55 77 189 90
225 7 19 27 69 43 110 74 182 115 297 149 420 22 78 38 131 74 245 71 225 114
401 185 760 9 44 22 109 29 145 7 36 21 119 30 185 9 66 21 145 26 175 14 74
35 291 60 600 17 213 23 975 9 1150 -6 80 -15 210 -20 290 -5 80 -13 165 -19
190 -6 25 -11 65 -11 90 0 25 -6 83 -14 130 -8 47 -22 135 -31 195 -32 213
-107 603 -129 677 -3 7 -12 49 -21 93 -9 44 -23 100 -31 125 -22 73 -115 402
-126 445 -6 22 -16 56 -23 75 -7 19 -20 60 -29 90 -24 82 -53 168 -76 230 -12
30 -25 69 -30 85 -5 17 -18 55 -30 85 -12 30 -25 66 -30 80 -5 14 -18 50 -30
80 -12 30 -25 66 -30 80 -8 27 -69 169 -100 235 -18 39 -44 96 -135 294 -97
212 -260 523 -369 704 -39 65 -82 137 -95 160 -13 23 -37 61 -52 85 -16 24
-29 45 -29 47 0 10 -259 388 -336 490 -107 142 -384 486 -462 575 -273 306
-531 567 -757 765 -44 39 -105 93 -135 121 -213 196 -643 518 -996 747 -62 40
-120 77 -130 84 -18 12 -161 98 -234 142 -19 11 -42 24 -50 28 -8 3 -31 16
-50 28 -97 60 -397 212 -620 315 -208 97 -298 135 -430 185 -19 8 -66 26 -104
40 -38 15 -88 33 -110 40 -23 7 -79 27 -126 44 -47 18 -101 36 -120 41 -19 5
-55 16 -80 26 -25 9 -74 25 -110 36 -36 10 -87 26 -115 34 -27 8 -75 22 -105
30 -30 9 -77 22 -105 30 -121 34 -456 111 -685 158 -307 62 -809 122 -1230
146 -209 12 -906 11 -1140 -1z M9630 18384 c-19 -2 -105 -8 -190 -14 -85 -6
-191 -17 -235 -25 -44 -7 -102 -16 -130 -20 -134 -16 -441 -97 -635 -167 -299
-107 -720 -353 -970 -567 -154 -131 -418 -407 -521 -546 -101 -135 -246 -349
-302 -447 -41 -71 -218 -427 -227 -457 -5 -14 -18 -51 -30 -81 -117 -299 -203
-606 -255 -910 -9 -52 -23 -131 -31 -175 -31 -183 -44 -275 -44 -323 0 -27 -7
-85 -15 -128 -15 -79 -36 -454 -27 -486 14 -55 41 20 85 232 19 93 36 188 47
260 9 56 118 585 144 695 36 152 86 330 113 400 8 22 21 56 28 75 7 19 20 54
29 78 9 23 22 59 30 80 48 128 126 296 192 412 155 275 174 305 319 515 82
120 226 295 344 419 67 70 278 258 380 340 71 57 257 186 267 186 3 0 24 13
47 29 96 65 344 191 453 229 32 12 84 30 114 42 125 47 271 90 390 114 188 38
301 57 360 61 36 3 136 10 222 16 410 30 923 -61 1243 -223 420 -211 680 -455
909 -851 74 -128 146 -271 146 -290 0 -9 4 -18 10 -22 5 -3 14 -20 19 -38 5
-18 19 -57 31 -87 83 -215 155 -505 186 -755 21 -174 29 -669 15 -895 -23
-342 -43 -475 -99 -640 -22 -66 -74 -170 -84 -170 -5 0 -8 -10 -6 -22 2 -17
38 -44 144 -108 171 -104 222 -141 295 -217 82 -85 121 -149 194 -320 10 -23
15 -50 11 -59 -5 -14 -18 -6 -69 43 -60 58 -196 152 -267 185 -53 24 -143 48
-182 48 -20 0 -71 6 -114 14 -44 8 -133 22 -199 30 -66 9 -169 23 -230 31
-279 37 -453 43 -642 20 -145 -17 -224 -36 -309 -75 -84 -38 -132 -89 -171
-180 -54 -131 -66 -194 -93 -500 -6 -63 -15 -151 -21 -195 -5 -44 -6 -132 -3
-195 9 -156 36 -237 123 -365 100 -148 131 -222 131 -311 0 -131 -80 -239
-251 -340 -191 -112 -323 -157 -464 -158 -93 -1 -103 1 -143 27 -24 16 -69 52
-100 80 -124 114 -208 162 -297 171 -101 10 -166 -4 -228 -52 -33 -26 -64 -42
-81 -42 -63 0 15 -57 137 -101 47 -17 67 -29 65 -39 -3 -12 -41 -17 -213 -27
-257 -14 -649 -19 -728 -8 -60 8 -85 29 -54 46 8 5 42 29 74 54 32 25 146 113
254 195 108 82 209 164 226 183 16 19 51 76 78 128 26 52 63 111 83 132 33 34
34 37 14 37 -44 0 -242 -113 -377 -215 -44 -33 -109 -80 -143 -105 -35 -25
-94 -67 -131 -95 -38 -27 -121 -88 -185 -135 -293 -212 -490 -374 -616 -506
-85 -89 -245 -279 -310 -369 -70 -95 -195 -351 -240 -489 -27 -83 -49 -191
-41 -199 5 -5 46 65 91 155 131 258 230 412 252 390 5 -5 -9 -46 -31 -93 -41
-87 -58 -132 -91 -234 -195 -615 -189 -600 -444 -1103 -43 -84 -75 -156 -72
-160 8 -7 172 153 228 223 22 28 68 82 103 120 34 39 80 93 102 120 42 53 130
135 144 135 13 0 11 -18 -6 -43 -23 -36 -167 -366 -195 -447 -5 -14 -18 -50
-30 -80 -54 -139 -81 -220 -96 -285 -27 -121 -31 -137 -62 -255 -16 -63 -48
-203 -71 -310 -22 -107 -45 -214 -51 -238 -16 -67 -50 -322 -50 -374 0 -27 4
-48 9 -48 5 0 20 28 34 63 14 34 42 99 62 142 20 44 46 100 57 125 62 136 148
309 157 315 6 3 11 13 11 20 0 18 56 111 167 278 92 136 128 166 92 75 -35
-89 -120 -350 -151 -468 -56 -214 -95 -467 -123 -795 -17 -207 -21 -610 -5
-620 9 -6 108 190 152 300 62 157 81 204 93 230 29 67 120 286 161 386 76 190
285 617 377 771 40 68 76 130 79 138 11 29 169 247 280 387 133 167 157 181
124 74 -8 -25 -22 -80 -31 -121 -9 -41 -20 -93 -25 -115 -37 -152 -71 -485
-51 -485 12 0 14 3 73 81 139 184 183 236 295 347 67 67 127 122 133 122 14 0
12 -27 -4 -58 -8 -15 -24 -61 -36 -102 -13 -41 -28 -93 -35 -115 -37 -116 -65
-371 -65 -581 0 -200 5 -257 24 -251 6 2 24 35 41 73 37 86 169 308 298 504
80 121 228 318 243 324 20 8 20 12 -21 -209 -13 -69 -34 -187 -55 -315 -6 -36
-15 -103 -20 -150 -6 -47 -15 -125 -20 -175 -17 -140 -14 -494 5 -595 8 -47
15 -86 15 -87 0 -2 6 -3 13 -3 11 0 31 47 111 262 20 54 40 106 45 115 17 32
108 257 121 298 7 22 16 45 20 50 4 6 24 51 45 100 20 50 64 146 97 215 34 69
71 148 84 175 12 28 30 59 39 70 15 19 16 15 10 -65 -4 -47 -11 -143 -15 -215
-22 -331 -105 -1082 -136 -1228 -3 -15 -9 -60 -14 -100 -4 -39 -13 -101 -19
-137 -21 -115 -40 -233 -51 -315 -6 -44 -20 -123 -30 -175 -10 -52 -25 -138
-34 -190 -26 -148 -64 -326 -88 -415 -6 -22 -15 -58 -19 -80 -14 -67 -36 -159
-48 -198 -6 -20 -15 -52 -20 -70 -43 -153 -146 -474 -164 -512 -8 -16 -36 -73
-61 -125 -72 -148 -161 -300 -176 -300 -4 0 -11 39 -14 88 -21 273 -80 634
-147 897 -52 204 -54 210 -68 210 -13 0 -30 -48 -51 -140 -5 -22 -13 -53 -19
-68 -6 -16 -11 -43 -11 -61 0 -18 -4 -46 -10 -62 -5 -16 -14 -63 -19 -104 -35
-266 -96 -622 -141 -820 -37 -164 -166 -533 -252 -720 -11 -24 -24 -55 -29
-68 -23 -59 -48 12 -104 288 -35 171 -44 202 -58 197 -7 -2 -15 -26 -18 -53
-7 -54 -36 -192 -44 -204 -3 -5 -9 -34 -14 -67 -5 -32 -19 -107 -30 -168 -130
-676 -170 -1146 -121 -1420 23 -131 29 -155 63 -220 68 -135 148 -254 290
-435 75 -96 218 -241 231 -237 15 5 44 150 45 225 1 34 5 62 10 62 4 0 22 -28
39 -62 40 -80 144 -238 202 -306 56 -66 175 -162 201 -162 12 0 21 9 24 27 3
16 12 42 20 58 8 17 34 73 58 125 49 106 131 248 155 268 23 18 35 15 29 -7
-7 -28 20 -349 33 -396 54 -190 154 -415 184 -415 7 0 25 33 41 73 43 112 111
238 155 287 l40 45 27 -31 c16 -17 61 -57 101 -89 77 -61 91 -64 116 -20 47
83 203 275 326 400 168 172 392 404 565 585 66 69 125 128 132 133 14 9 33
-21 33 -52 0 -33 -43 -196 -71 -266 -9 -25 -55 -126 -80 -179 -10 -22 -17 -42
-14 -44 23 -23 370 156 584 301 486 329 797 671 1018 1122 33 66 67 143 76
170 57 169 77 237 77 265 0 34 22 49 44 31 34 -28 83 -147 115 -275 9 -38 21
-71 27 -73 6 -2 18 13 26 34 9 21 33 76 53 123 21 47 44 102 51 123 36 96 42
115 57 162 117 365 182 869 196 1520 4 166 10 259 16 257 6 -2 18 -43 28 -90
10 -48 29 -134 43 -192 14 -58 34 -143 45 -190 11 -47 24 -101 29 -121 22 -82
50 -276 50 -342 0 -86 -31 -355 -60 -528 -29 -173 -112 -538 -166 -725 -25
-88 -18 -98 48 -70 18 8 94 37 168 64 141 52 303 118 380 154 89 41 335 159
350 167 9 5 74 40 145 79 196 105 229 123 245 137 8 6 56 36 105 65 323 192
671 450 995 740 263 235 559 555 823 890 112 142 298 412 295 427 -2 8 -34 28
-73 44 -38 17 -97 43 -130 58 -157 75 -322 154 -563 272 -144 71 -267 129
-271 129 -5 0 -50 20 -100 45 -50 25 -95 45 -101 45 -5 0 -32 13 -60 30 -28
17 -53 30 -56 30 -7 0 -239 111 -299 142 -22 12 -47 25 -55 29 -8 4 -67 33
-130 64 -63 32 -133 64 -154 72 -22 7 -71 29 -110 47 -177 85 -310 149 -421
201 -66 32 -174 83 -240 115 -236 112 -270 127 -282 123 -10 -4 -13 -51 -13
-187 0 -330 -27 -634 -76 -886 -17 -87 -99 -380 -120 -428 -8 -18 -14 -39 -14
-46 0 -8 -7 -19 -15 -26 -13 -11 -15 -6 -15 31 0 24 5 62 10 84 29 121 44 418
45 845 0 239 -4 463 -8 498 -6 39 -5 62 1 62 5 0 33 -36 63 -80 29 -44 56 -80
60 -80 14 0 18 35 24 230 12 383 -61 1488 -116 1740 -15 68 -15 73 -3 77 7 2
28 -23 49 -57 35 -58 55 -75 55 -46 0 31 -30 396 -40 481 -16 143 -40 633 -40
830 0 211 14 439 35 580 18 120 35 317 35 403 0 35 4 62 10 62 27 0 34 -61 34
-295 1 -203 -2 -252 -18 -320 -16 -66 -20 -120 -20 -312 -1 -205 1 -234 16
-249 15 -16 19 -15 60 17 58 46 102 93 149 161 45 66 109 189 109 212 0 8 6
30 14 48 41 97 70 238 115 573 16 111 30 197 40 235 50 188 88 315 161 540 84
259 111 487 73 608 -21 66 -76 126 -130 141 -195 54 -383 -86 -493 -368 -29
-75 -50 -90 -50 -37 0 34 13 96 45 211 8 28 23 86 34 130 11 44 36 141 56 215
35 132 43 174 84 450 45 308 81 801 81 1140 1 368 -73 860 -176 1180 -14 41
-36 109 -49 150 -24 74 -41 122 -62 170 -6 14 -28 66 -48 115 -162 397 -371
742 -653 1080 -151 181 -467 477 -662 621 -74 55 -263 177 -385 251 -261 157
-615 302 -920 376 -199 49 -292 65 -485 82 -167 15 -433 25 -490 19z m2310
-4880 c123 -29 173 -57 245 -136 64 -71 155 -202 155 -224 0 -19 -22 -18 -51
4 -103 75 -479 208 -658 232 -36 5 -92 13 -123 19 -31 5 -111 13 -177 17 -67
4 -121 11 -121 15 0 32 191 74 425 93 70 6 248 -6 305 -20z m-463 -499 c43 -8
93 -15 111 -15 19 0 61 -7 95 -15 34 -8 109 -24 167 -35 209 -40 279 -65 388
-137 108 -72 49 -101 -220 -110 -93 -3 -168 -9 -168 -14 0 -9 93 -37 320 -96
93 -24 213 -64 260 -86 92 -43 171 -112 206 -179 41 -81 28 -186 -16 -133 -7
9 -20 15 -28 13 -12 -2 -15 -33 -18 -163 -5 -206 -28 -422 -55 -521 -67 -244
-174 -392 -329 -455 -105 -42 -334 -27 -415 28 -11 7 -25 13 -32 13 -28 0
-168 107 -236 180 -109 117 -159 222 -262 550 -55 175 -81 242 -161 405 -97
200 -118 263 -116 349 1 55 6 76 26 107 37 55 86 89 129 89 30 0 37 4 37 19 0
11 -4 22 -10 26 -5 3 -21 32 -36 65 -14 32 -32 61 -40 64 -29 11 -14 35 29 46
23 6 47 13 52 15 28 10 253 3 322 -10z m-617 -1445 c0 -10 -12 -31 -27 -45
-23 -21 -38 -25 -85 -25 -31 0 -59 4 -63 9 -3 5 26 19 65 32 38 12 75 28 81
35 16 20 29 17 29 -6z m-1740 -930 c22 -11 40 -24 40 -28 0 -5 6 -17 14 -28
14 -18 15 -18 46 11 28 27 39 30 110 33 128 6 263 -52 352 -151 l27 -30 68 32
c63 31 75 33 178 35 113 1 173 -13 235 -54 14 -10 48 -20 75 -23 64 -7 177
-44 235 -77 25 -14 68 -32 96 -41 90 -28 236 -141 219 -169 -4 -6 -26 -20 -49
-31 -22 -10 -61 -30 -84 -43 -50 -28 -99 -26 -144 7 -26 19 -26 19 -71 -3 -43
-21 -53 -22 -149 -15 -57 5 -144 8 -195 7 -175 -3 -393 39 -428 83 -24 29 -37
31 -55 10 -21 -26 -186 -20 -300 10 -107 29 -127 40 -181 98 l-38 41 -41 -23
c-35 -19 -52 -23 -105 -19 -76 5 -122 35 -155 103 -12 25 -27 45 -33 45 -7 0
-25 -16 -41 -36 -27 -34 -32 -36 -72 -31 -37 4 -55 15 -114 70 -38 37 -81 74
-94 82 -31 20 -24 40 17 55 32 11 55 21 130 54 50 21 145 21 168 0 17 -15 21
-15 46 2 53 36 78 42 166 43 69 1 96 -3 127 -19z m-898 -196 c44 -48 165 -145
251 -202 121 -80 401 -190 642 -251 254 -64 503 -115 725 -146 25 -4 99 -16
165 -26 75 -13 196 -22 325 -26 l204 -6 29 -28 c34 -34 30 -46 -46 -127 -201
-212 -606 -325 -997 -278 -340 41 -528 85 -682 161 -79 39 -167 96 -193 125
-36 40 -44 27 -47 -81 -3 -97 -4 -100 -21 -82 -20 19 -192 277 -289 432 -107
171 -188 370 -188 464 0 41 43 117 66 117 8 0 33 -21 56 -46z m3298 -589 c0
-39 -27 -115 -41 -115 -5 0 -14 11 -19 24 -5 13 -14 27 -19 31 -18 11 -12 31
14 45 13 7 27 21 31 32 10 33 34 21 34 -17z M7985 14381 c-128 -29 -308 -98
-400 -154 -116 -71 -175 -110 -175 -118 0 -13 33 -11 72 6 45 18 227 65 298
76 226 35 276 36 405 13 182 -33 353 -96 600 -221 178 -90 248 -134 236 -146
-7 -7 -18 -7 -36 1 -70 32 -456 50 -670 32 -260 -22 -433 -67 -630 -167 -60
-30 -116 -60 -124 -66 -7 -6 -22 -16 -32 -22 -103 -56 -162 -85 -207 -100 -29
-9 -52 -21 -50 -27 2 -5 30 -19 63 -31 73 -26 177 -28 220 -5 17 9 48 23 70
31 165 62 248 63 680 6 121 -16 296 -28 426 -28 150 -1 226 -24 364 -112 52
-33 119 -51 175 -47 42 3 45 5 48 33 2 30 -32 97 -80 157 -28 36 -20 43 28 22
168 -73 221 -86 241 -58 18 24 16 119 -3 169 -30 77 -30 78 24 115 60 41 118
113 157 195 33 71 42 98 59 187 14 70 8 100 -16 81 -33 -28 -106 -43 -206 -43
-105 0 -148 7 -352 62 -198 52 -224 59 -270 74 -25 8 -52 14 -61 14 -9 0 -39
6 -65 14 -27 8 -83 21 -124 29 -41 9 -100 21 -130 28 -30 7 -145 13 -255 15
-164 2 -215 0 -280 -15z M5550 14073 c-63 -22 -145 -85 -174 -136 -67 -113
-86 -227 -86 -503 0 -253 18 -451 63 -689 22 -115 44 -253 62 -385 15 -114 45
-670 45 -864 1 -55 5 -119 9 -141 5 -22 14 -65 20 -96 14 -69 84 -245 140
-354 54 -103 101 -239 101 -291 0 -22 3 -44 7 -48 4 -4 69 55 144 130 128 127
169 154 134 87 -8 -15 -35 -71 -61 -123 -25 -52 -52 -102 -59 -110 -13 -16
-105 -204 -105 -215 0 -4 -30 -82 -67 -173 -56 -140 -98 -268 -143 -437 -38
-144 -60 -232 -74 -300 -9 -44 -23 -111 -31 -150 -9 -38 -15 -90 -15 -115 0
-25 -6 -79 -14 -120 -8 -41 -17 -131 -21 -199 -5 -100 -4 -122 7 -119 7 3 17
18 22 34 5 16 21 63 36 104 15 41 50 145 78 230 96 297 275 665 405 835 143
185 162 200 151 113 -4 -29 -11 -64 -16 -78 -5 -14 -14 -50 -19 -80 -50 -281
-63 -419 -52 -555 10 -126 26 -132 64 -25 15 41 51 127 81 190 30 63 69 144
85 180 17 36 53 112 81 170 27 58 64 136 81 173 17 39 35 66 41 62 5 -3 10
-30 10 -58 0 -78 30 -227 45 -227 7 0 15 15 18 33 3 17 10 50 16 72 39 153 49
248 57 540 7 238 -1 364 -33 543 -11 60 -22 92 -30 92 -7 0 -13 -7 -13 -16 0
-16 -90 -288 -117 -351 -28 -69 -34 -37 -33 190 1 122 6 246 12 275 5 30 7 56
5 58 -10 11 -34 -10 -61 -52 -49 -77 -61 -52 -76 161 -6 77 -15 160 -21 185
-6 27 -13 295 -17 657 -4 337 -11 615 -14 619 -17 17 -42 -13 -82 -98 -52
-112 -79 -213 -121 -448 -36 -203 -72 -309 -111 -330 -24 -13 -44 -62 -44
-109 0 -55 24 -103 71 -142 78 -67 74 -135 -19 -329 -81 -170 -121 -284 -122
-347 0 -12 -5 -25 -11 -29 -16 -10 -74 52 -109 117 -76 143 -79 321 -15 804
26 188 22 221 -70 595 -53 216 -72 455 -46 571 17 72 51 174 93 279 19 47 41
113 48 148 8 34 19 62 26 62 16 0 92 -116 155 -235 l51 -97 -5 -77 c-3 -42
-14 -125 -26 -186 -25 -138 -31 -246 -14 -252 7 -3 17 7 23 22 5 14 25 45 42
69 34 44 82 135 115 216 28 69 25 255 -5 334 -60 157 -189 346 -278 407 -100
69 -189 93 -271 75 -42 -10 -42 3 -3 63 59 93 134 141 234 150 43 4 61 10 61
20 0 37 -152 52 -235 24z M8955 13278 c-16 -6 -71 -28 -121 -49 -116 -49 -218
-77 -323 -89 -46 -5 -86 -12 -89 -15 -16 -15 26 -20 176 -19 201 1 288 20 465
98 86 38 76 51 -63 81 -8 2 -28 -1 -45 -7z M6472 5028 c-120 -203 -169 -337
-242 -663 -29 -132 -55 -499 -45 -650 26 -423 92 -710 230 -1000 73 -151 244
-414 359 -548 46 -55 183 -170 234 -196 29 -15 40 6 20 41 -19 34 -15 340 7
508 30 232 10 430 -63 625 -24 65 -44 101 -78 142 l-32 38 -32 -30 c-18 -16
-57 -81 -87 -143 -30 -62 -59 -112 -65 -110 -22 8 -76 181 -122 393 -79 367
-89 1184 -19 1643 8 53 -13 37 -65 -50z"/>
</g>
</svg>
